<svg version="1.1" xmlns="http://www.w3.org/2000/svg" xmlns:xlink="http://www.w3.org/1999/xlink">
    <symbol viewBox="0 0 18 18" id="close-menu-icon">
        <g clip-path="url(#clip0)"><path d="M10.0551 9.00517L17.771 1.28931C18.0688 1.0017 18.077 0.527154 17.7894 0.229355C17.5018 -0.0684448 17.0272 -0.0767024 16.7294 0.210907C16.7232 0.216924 16.7171 0.223074 16.711 0.229355L8.99508 7.94522L1.27921 0.229311C0.981408 -0.0582986 0.506861 -0.050041 0.219251 0.247758C-0.0613304 0.538267 -0.0613304 0.998802 0.219251 1.28931L7.93512 9.00517L0.219251 16.721C-0.0734093 17.0137 -0.0734093 17.4883 0.219251 17.781C0.511956 18.0736 0.986503 18.0736 1.27921 17.781L8.99508 10.0651L16.711 17.781C17.0088 18.0686 17.4833 18.0603 17.7709 17.7625C18.0514 17.472 18.0514 17.0115 17.7709 16.721L10.0551 9.00517Z" /></g><defs><clipPath id="clip0"><rect width="18" height="18" /></clipPath></defs>
    </symbol>

    <symbol viewBox="0 0 24 24" id="header-email">
        <path d="M0 3v18h24v-18h-24zm21.518 2l-9.518 7.713-9.518-7.713h19.036zm-19.518 14v-11.817l10 8.104 10-8.104v11.817h-20z"/>
    </symbol>

    <symbol viewBox="0 0 24 24" id="header-phone">
        <path d="M18.48 22.926l-1.193.658c-6.979 3.621-19.082-17.494-12.279-21.484l1.145-.637 3.714 6.467-1.139.632c-2.067 1.245 2.76 9.707 4.879 8.545l1.162-.642 3.711 6.461zm-9.808-22.926l-1.68.975 3.714 6.466 1.681-.975-3.715-6.466zm8.613 14.997l-1.68.975 3.714 6.467 1.681-.975-3.715-6.467z"/>
    </symbol>

    <symbol viewBox="0 0 24 24" id="24h">
        <path d="M21.854 13.683l1.998.159c-.132.854-.351 1.676-.652 2.46l-1.8-.905c.2-.551.353-1.123.454-1.714zm-2.548 7.826l-1.413-1.443c-.486.356-1.006.668-1.555.933l.669 1.899c.821-.377 1.591-.844 2.299-1.389zm1.226-4.309c-.335.546-.719 1.057-1.149 1.528l1.404 1.433c.583-.627 1.099-1.316 1.539-2.058l-1.794-.903zm-20.532-5.2c0 6.627 5.375 12 12.004 12 1.081 0 2.124-.156 3.12-.424l-.665-1.894c-.787.2-1.607.318-2.455.318-5.516 0-10.003-4.486-10.003-10s4.487-10 10.003-10c2.235 0 4.293.744 5.959 1.989l-2.05 2.049 7.015 1.354-1.355-7.013-2.184 2.183c-2.036-1.598-4.595-2.562-7.385-2.562-6.629 0-12.004 5.373-12.004 12zm23.773-2.359h-2.076c.163.661.261 1.344.288 2.047l2.015.161c-.01-.755-.085-1.494-.227-2.208zm-9.005 5.359v-1.419h-2.594v-1.295l2.722-3.653h1.288v3.689h.816v1.259h-.815v1.419h-1.417zm0-2.679v-1.695l-1.263 1.695h1.263zm-7.768 2.679c0-.961.275-1.709 1.234-2.419 1.129-.836 1.99-1.165 1.99-1.939 0-.512-.308-.83-.804-.83-.69 0-.855.723-.855 1.411h-1.421c-.06-1.782.951-2.713 2.338-2.713 1.287 0 2.22.856 2.22 2.036 0 .589-.183 1.056-.576 1.469-.621.655-1.552.985-2.163 1.682h2.774v1.303h-4.737z"/>
    </symbol>

    <symbol viewBox="0 0 24 24" id="quote">
        <path d="M11 9.275c0 5.141-3.892 10.519-10 11.725l-.984-2.126c2.215-.835 4.163-3.742 4.38-5.746-2.491-.392-4.396-2.547-4.396-5.149 0-3.182 2.584-4.979 5.199-4.979 3.015 0 5.801 2.305 5.801 6.275zm13 0c0 5.141-3.892 10.519-10 11.725l-.984-2.126c2.215-.835 4.163-3.742 4.38-5.746-2.491-.392-4.396-2.547-4.396-5.149 0-3.182 2.584-4.979 5.199-4.979 3.015 0 5.801 2.305 5.801 6.275z"/>
    </symbol>

    <symbol width="21" height="38" viewBox="0 0 21 38" id="next-slider-arrow">
        <path opacity="0.7" d="M1 37L19.1165 19L1 1"  stroke-width="2" stroke-linecap="round" stroke-linejoin="round"/>
    </symbol>

    <symbol width="21" height="38" viewBox="0 0 21 38" id="prev-slider-arrow">
        <path opacity="0.7" d="M19.1165 37L1 19L19.1165 1"  stroke-width="2" stroke-linecap="round" stroke-linejoin="round"/>
    </symbol>

    <symbol viewBox="0 0 24 24" id="footer-location">
        <path d="M12 0c-4.198 0-8 3.403-8 7.602 0 4.198 3.469 9.21 8 16.398 4.531-7.188 8-12.2 8-16.398 0-4.199-3.801-7.602-8-7.602zm0 11c-1.657 0-3-1.343-3-3s1.343-3 3-3 3 1.343 3 3-1.343 3-3 3z"/>
    </symbol>

    <symbol viewBox="0 0 24 24" id="footer-location-phis">
        <path d="M12 3c2.131 0 4 1.73 4 3.702 0 2.05-1.714 4.941-4 8.561-2.286-3.62-4-6.511-4-8.561 0-1.972 1.869-3.702 4-3.702zm0-2c-3.148 0-6 2.553-6 5.702 0 3.148 2.602 6.907 6 12.298 3.398-5.391 6-9.15 6-12.298 0-3.149-2.851-5.702-6-5.702zm0 8c-1.105 0-2-.895-2-2s.895-2 2-2 2 .895 2 2-.895 2-2 2zm8 6h-3.135c-.385.641-.798 1.309-1.232 2h3.131l.5 1h-4.264l-.344.544-.289.456h.558l.858 2h-7.488l.858-2h.479l-.289-.456-.343-.544h-2.042l-1.011-1h2.42c-.435-.691-.848-1.359-1.232-2h-3.135l-4 8h24l-4-8zm-12.794 6h-3.97l1.764-3.528 1.516 1.528h1.549l-.859 2zm8.808-2h3.75l1 2h-3.892l-.858-2z"/>
    </symbol>

    <symbol viewBox="0 0 24 24" id="breadcrumbs-arrow">
        <path d="M6.028 0v6.425l5.549 5.575-5.549 5.575v6.425l11.944-12z"/>
    </symbol>

    <symbol viewBox="0 0 217 198" id="arrow-up">
        <path d="M105.16 1.38485L1.37763 105.09C0.493119 105.976 -0.00220685 107.177 4.48527e-06 108.428L8.19417e-06 193.278C-0.0048565 195.881 2.10382 197.995 4.70914 198C5.96515 198.002 7.17029 197.504 8.05745 196.615L108.5 96.2377L208.943 196.615C210.782 198.458 213.769 198.462 215.614 196.623C216.503 195.737 217.002 194.533 217 193.278L217 108.428C217.002 107.177 216.507 105.976 215.622 105.09L111.84 1.38485C110 -0.458419 107.013 -0.46196 105.168 1.37645C105.166 1.37955 105.163 1.3822 105.16 1.38485Z" />
    </symbol>

</svg>